<?xml version="1.0" encoding="iso-8859-1"?>
<!-- Uploaded to: SVG Repo, www.svgrepo.com, Generator: SVG Repo Mixer Tools -->
<svg fill="#000000" height="800px" width="800px" version="1.1" id="Layer_1" xmlns="http://www.w3.org/2000/svg" xmlns:xlink="http://www.w3.org/1999/xlink" 
	 viewBox="0 0 512 512" xml:space="preserve">
<g transform="translate(1 1)">
	<g>
		<g>
			<path d="M445.293,408.6H434.2v-53.76c0-17.067-13.653-31.573-31.573-31.573h-11.093v-53.76c0-17.067-13.653-31.573-31.573-31.573
				h-39.253c-8.968,0-17.225,3.773-23.045,9.951c-5.685-6.083-13.789-9.951-23.035-9.951h-39.253
				c-8.968,0-17.225,3.773-23.045,9.951c-5.685-6.083-13.789-9.951-23.035-9.951H150.04c-17.067,0-31.573,13.653-31.573,31.573
				v53.76h-11.093c-17.067,0-31.573,13.653-31.573,31.573v53.76H64.707c-17.067,0-31.573,14.507-31.573,31.573v62.293
				c0,5.12,3.413,8.533,8.533,8.533H127h85.333h85.333H383h85.333c5.12,0,8.533-3.413,8.533-8.533v-62.293
				C476.867,423.107,463.213,408.6,445.293,408.6z M417.133,354.84v53.76H406.04c-8.968,0-17.224,3.773-23.045,9.951
				c-5.685-6.083-13.789-9.951-23.035-9.951h-11.093v-53.76c0-7.68,5.973-14.507,14.507-14.507H383h19.627
				C410.307,340.333,417.133,346.307,417.133,354.84z M320.707,408.6c-8.968,0-17.225,3.773-23.045,9.951
				c-5.685-6.083-13.789-9.951-23.035-9.951h0h-11.093v-53.76c0,0,0-0.001,0-0.001c0-1.92,0.373-3.786,1.067-5.506
				c0.347-0.86,0.773-1.683,1.273-2.458c0.5-0.775,1.073-1.502,1.713-2.168c2.56-2.667,6.187-4.373,10.453-4.373h19.627h19.627
				c7.68,0,14.507,5.973,14.507,14.507v53.76H320.707z M235.373,408.6c-8.968,0-17.225,3.773-23.045,9.951
				c-5.685-6.083-13.789-9.951-23.035-9.951H178.2v-53.76c0-5.76,3.36-11.04,8.64-13.32c1.76-0.76,3.733-1.187,5.867-1.187h19.627
				h19.627c7.68,0,14.507,5.973,14.507,14.507v53.76H235.373z M320.707,255h39.253c7.68,0,14.507,5.973,14.507,14.507v53.76h-11.093
				c-0.573,0-1.142,0.018-1.709,0.049c-0.055,0.003-0.109,0.009-0.164,0.012c-8.239,0.485-15.759,4.146-21.172,9.89
				c-5.685-6.083-13.789-9.951-23.035-9.951H306.2v-53.76C306.2,261.827,312.173,255,320.707,255z M235.373,255h39.253
				c7.68,0,14.507,5.973,14.507,14.507v53.76H278.04c-0.573,0-1.142,0.018-1.709,0.049c-0.055,0.003-0.109,0.009-0.164,0.012
				c-8.239,0.485-15.759,4.146-21.172,9.89c-5.685-6.083-13.789-9.951-23.035-9.951h-11.093v-53.76c0,0,0-0.001,0-0.001
				C220.867,261.826,226.84,255,235.373,255z M135.533,269.507c0-7.68,5.973-14.507,14.507-14.507h39.253
				c7.68,0,14.507,5.973,14.507,14.507v53.76h-11.093c-0.573,0-1.142,0.018-1.709,0.049c-0.055,0.003-0.109,0.009-0.164,0.012
				c-8.239,0.485-15.759,4.146-21.172,9.89c-5.685-6.083-13.789-9.951-23.035-9.951h-11.093V269.507z M92.867,354.84
				c0-7.68,5.973-14.507,14.507-14.507H127h19.627c7.68,0,14.507,5.973,14.507,14.507v53.76H150.04
				c-8.968,0-17.225,3.773-23.045,9.951c-5.685-6.083-13.789-9.951-23.035-9.951H92.867C92.867,408.6,92.867,354.84,92.867,354.84z
				 M50.2,440.173c0-7.68,5.973-14.507,14.507-14.507h19.627h19.627c0.394,0,0.785,0.026,1.174,0.057
				c5.564,0.516,10.885,4.658,12.479,11.036c0.2,0.401,0.426,0.788,0.671,1.163c0.108,0.73,0.183,1.476,0.183,2.251v53.76H50.2
				V440.173z M135.533,440.173c0-2.84,0.821-5.561,2.282-7.865c1.774-2.606,4.08-4.539,6.821-5.628
				c0.252-0.099,0.502-0.199,0.762-0.284c0.137-0.045,0.278-0.082,0.418-0.123c0.312-0.091,0.627-0.175,0.949-0.246
				c0.134-0.03,0.268-0.057,0.404-0.083c0.341-0.065,0.688-0.117,1.04-0.159c0.126-0.015,0.251-0.034,0.379-0.046
				c0.475-0.044,0.958-0.073,1.451-0.073c0,0,0,0,0,0h19.627h19.627c0.394,0,0.785,0.026,1.174,0.057
				c5.564,0.516,10.885,4.658,12.479,11.036c0.2,0.401,0.426,0.788,0.671,1.163c0.108,0.73,0.183,1.476,0.183,2.251v53.76h-68.267
				V440.173z M220.867,440.172c0-2.839,0.821-5.559,2.282-7.863c1.774-2.607,4.08-4.539,6.822-5.628
				c0.252-0.099,0.502-0.199,0.762-0.284c0.137-0.045,0.278-0.082,0.417-0.123c0.312-0.091,0.627-0.175,0.949-0.246
				c0.134-0.03,0.268-0.057,0.404-0.083c0.341-0.065,0.689-0.117,1.041-0.159c0.126-0.015,0.251-0.034,0.379-0.046
				c0.475-0.044,0.958-0.073,1.451-0.073H255h19.627c0.394,0,0.785,0.026,1.174,0.057c5.564,0.516,10.885,4.658,12.479,11.036
				c0.2,0.401,0.426,0.788,0.671,1.163c0.108,0.73,0.183,1.476,0.183,2.251v53.76h-68.267V440.172
				C220.867,440.173,220.867,440.173,220.867,440.172z M306.2,440.173c0-2.84,0.821-5.561,2.282-7.865
				c1.774-2.606,4.079-4.538,6.821-5.627c0.252-0.099,0.503-0.199,0.763-0.284c0.137-0.045,0.278-0.082,0.417-0.123
				c0.312-0.091,0.627-0.175,0.949-0.246c0.134-0.03,0.268-0.057,0.404-0.083c0.341-0.065,0.689-0.117,1.041-0.159
				c0.126-0.015,0.251-0.034,0.379-0.046c0.475-0.044,0.958-0.073,1.451-0.073h19.627h19.627c0.394,0,0.785,0.026,1.174,0.057
				c5.564,0.516,10.885,4.658,12.479,11.036c0.2,0.401,0.426,0.788,0.671,1.163c0.108,0.73,0.183,1.476,0.183,2.251v53.76H306.2
				V440.173z M459.8,493.933h-68.267v-53.76c0-2.84,0.821-5.561,2.282-7.865c1.774-2.607,4.08-4.539,6.822-5.628
				c0.252-0.099,0.502-0.199,0.762-0.284c0.137-0.045,0.278-0.082,0.417-0.123c0.312-0.091,0.627-0.175,0.949-0.246
				c0.134-0.03,0.268-0.057,0.404-0.083c0.341-0.065,0.689-0.117,1.041-0.159c0.126-0.015,0.251-0.034,0.379-0.046
				c0.475-0.044,0.958-0.073,1.451-0.073h19.627h19.627c7.68,0,14.507,5.973,14.507,14.507V493.933z"/>
			<path d="M502.467-1H434.2H75.8H7.533C2.413-1-1,2.413-1,7.533v120.32v84.48c0,5.12,3.413,8.533,8.533,8.533h51.2h392.533h51.2
				c5.12,0,8.533-3.413,8.533-8.533v-84.48V7.533C511,2.413,507.587-1,502.467-1z M425.715,16.067
				c0.962,57.232,18.11,97.442,47.13,113.078c-1.868,1.418-3.66,2.977-5.364,4.682c-19.687,19.687-23.729,54.004-24.546,69.973
				H67.048c-0.859-15.974-4.985-50.431-24.528-69.973c-1.705-1.705-3.496-3.264-5.364-4.682
				c29.019-15.636,46.168-55.846,47.13-113.078H425.715z M493.933,16.067v102.4c-36.693-6.827-50.347-55.467-51.2-102.4H493.933z
				 M16.067,16.067h51.2c-0.853,46.933-15.36,95.573-51.2,102.4V16.067z M16.067,203.8v-66.56c5.12,1.707,10.24,4.267,14.507,8.533
				c15.36,15.36,18.773,43.52,19.627,58.027H16.067z M493.933,203.8H459.8c0.853-14.507,5.12-42.667,19.627-58.027
				c4.267-4.267,9.387-6.827,14.507-8.533V203.8z"/>
			<path d="M255,187.587c42.667,0,76.8-34.987,76.8-76.8s-34.133-76.8-76.8-76.8c-42.667,0-76.8,34.133-76.8,76.8
				S212.333,187.587,255,187.587z M255,50.2c33.28,0,59.733,27.307,59.733,59.733c0,32.427-27.307,59.733-59.733,59.733
				c-32.427,0-59.733-26.453-59.733-59.733C195.267,77.507,221.72,50.2,255,50.2z"/>
			<path d="M233.667,143.213c0.853,0,2.56,0.853,4.267,0.853s2.56,0,4.267-0.853l51.2-25.6c3.413-1.707,5.12-4.267,5.12-7.68
				s-2.56-5.973-5.12-7.68l-51.2-25.6c-2.56-1.707-5.973-1.707-8.533,0s-4.267,5.12-4.267,7.68v51.2
				C229.4,138.093,231.107,141.507,233.667,143.213z M246.467,97.987l23.893,11.947l-23.893,11.947V97.987z"/>
		</g>
	</g>
</g>
</svg>